<svg xmlns="http://www.w3.org/2000/svg" xmlns:xlink="http://www.w3.org/1999/xlink" width="1120" height="330" viewBox="0 0 1120 330">
    <defs>
        <path id="prefix__a" d="M51.278 0h1017.444c17.83 0 24.296 1.857 30.815 5.343 6.518 3.486 11.634 8.602 15.12 15.12 3.486 6.519 5.343 12.984 5.343 30.815v227.444c0 17.83-1.857 24.296-5.343 30.815-3.486 6.518-8.602 11.634-15.12 15.12-6.519 3.486-12.984 5.343-30.815 5.343H51.278c-17.83 0-24.296-1.857-30.815-5.343-6.518-3.486-11.634-8.602-15.12-15.12C1.857 303.018 0 296.553 0 278.722V51.278c0-17.83 1.857-24.296 5.343-30.815 3.486-6.518 8.602-11.634 15.12-15.12C26.982 1.857 33.447 0 51.278 0z"/>
    </defs>
    <g fill="none" fill-rule="evenodd">
        <mask id="prefix__b" fill="#fff">
            <use xlink:href="#prefix__a"/>
        </mask>
        <use fill="#7F24E6" xlink:href="#prefix__a"/>
        <path stroke="#7218D8" stroke-linecap="round" stroke-linejoin="round" stroke-width="8" d="M-13.406 74.377l-76.201 121.45c-3.81 6.206.65 14.173 7.898 14.173H70.695c7.342 0 11.71-7.967 7.9-14.174L2.391 74.377c-3.624-5.836-12.173-5.836-15.798 0z" mask="url(#prefix__b)"/>
        <path stroke="#13C8EC" stroke-dasharray="800 1200" stroke-linecap="round" stroke-linejoin="round" stroke-width="8" d="M21.324-86.684L-105.679 116.31c-6.35 10.374 1.084 23.69 13.165 23.69h254.006c12.236 0 19.515-13.316 13.165-23.69L47.654-86.684c-6.04-9.755-20.29-9.755-26.33 0z" mask="url(#prefix__b)"/>
        <g mask="url(#prefix__b)">
            <g transform="scale(-1 1) rotate(-30 344.954 938.597)">
                <path stroke="#FFBF00" stroke-dasharray="456 1755" stroke-linecap="round" stroke-linejoin="round" stroke-width="8" d="M0 97.89c0 53.02 42.98 96 96 96s96-42.98 96-96-42.98-96-96-96-96 42.98-96 96z"/>
                <circle cx="71.11" cy="5" r="5" fill="#FFBF00"/>
            </g>
        </g>
        <g stroke-linecap="round" stroke-linejoin="round" mask="url(#prefix__b)">
            <g stroke-width="8">
                <path stroke="#7218D8" d="M.594 32.406L24.11 8.89c4.686-4.686 12.284-4.686 16.97 0l15.03 15.03c4.686 4.686 12.284 4.686 16.97 0L88.11 8.89c4.686-4.686 12.284-4.686 16.97 0l15.03 15.03c4.686 4.686 12.284 4.686 16.97 0l15.03-15.03c4.686-4.686 12.284-4.686 16.97 0l15.03 15.03c4.686 4.686 12.284 4.686 16.97 0L224.595.405h0" transform="scale(-1 1) rotate(45 -580.33 -1169.613)"/>
                <path stroke="#F66" d="M144.34 16.66l7.77-7.77c4.685-4.685 12.283-4.685 16.97 0l15.03 15.03c4.685 4.687 12.283 4.687 16.97 0L224.594.406h0" transform="scale(-1 1) rotate(45 -580.33 -1169.613)"/>
            </g>
        </g>
        <path stroke="#7218D8" stroke-linecap="round" stroke-linejoin="round" stroke-width="8" d="M1121 226c53.572 0 97 43.428 97 97v83c0 53.572-43.428 97-97 97s-97-43.428-97-97v-83c0-53.572 43.428-97 97-97z" mask="url(#prefix__b)"/>
    </g>
</svg>
