<svg xmlns="http://www.w3.org/2000/svg" width="288" height="361" viewBox="0 0 288 361">
    <g fill="none" fill-rule="evenodd" opacity=".4">
        <path stroke="#F1F3F6" stroke-width="2" d="M235.489 1H20.51c-6.849 0-9.347.678-11.854 2.019-2.43 1.3-4.338 3.207-5.638 5.638C1.678 11.164 1 13.662 1 20.51V339.49c0 6.849.678 9.347 2.019 11.854 1.3 2.43 3.207 4.338 5.638 5.638C11.164 358.322 13.662 359 20.51 359H235.49c6.849 0 9.347-.678 11.854-2.019 2.43-1.3 4.338-3.207 5.638-5.638 1.341-2.507 2.019-5.005 2.019-11.854V20.51c0-6.849-.678-9.347-2.019-11.854-1.3-2.43-3.207-4.338-5.638-5.638C244.836 1.678 242.338 1 235.49 1z"/>
        <circle cx="48" cy="56" r="24" fill="#F1F3F6"/>
        <g fill="#F1F3F6" transform="translate(24 118)">
            <rect width="82" height="13" rx="6.5"/>
            <rect width="208" height="14" y="41" rx="7"/>
            <rect width="208" height="14" y="67" rx="7"/>
            <rect width="208" height="14" y="93" rx="7"/>
            <rect width="208" height="14" y="119" rx="7"/>
            <rect width="168" height="14" y="145" rx="7"/>
        </g>
    </g>
</svg>
