<svg xmlns="http://www.w3.org/2000/svg" width="288" height="361" viewBox="0 0 288 361">
    <g fill="none" fill-rule="evenodd">
        <path fill="#FFF" stroke="#F1F3F6" stroke-opacity=".4" stroke-width="2" d="M267.489 1H52.51c-6.849 0-9.347.678-11.854 2.019-2.43 1.3-4.338 3.207-5.638 5.638C33.678 11.164 33 13.662 33 20.51V339.49c0 6.849.678 9.347 2.019 11.854 1.3 2.43 3.207 4.338 5.638 5.638C43.164 358.322 45.662 359 52.51 359H267.49c6.849 0 9.347-.678 11.854-2.019 2.43-1.3 4.338-3.207 5.638-5.638 1.341-2.507 2.019-5.005 2.019-11.854V20.51c0-6.849-.678-9.347-2.019-11.854-1.3-2.43-3.207-4.338-5.638-5.638C276.836 1.678 274.338 1 267.49 1z"/>
        <circle cx="80" cy="56" r="24" fill="#F1F3F6" opacity=".4"/>
        <g fill="#F1F3F6" opacity=".4" transform="translate(56 118)">
            <rect width="82" height="13" rx="6.5"/>
            <rect width="208" height="14" y="41" rx="7"/>
            <rect width="208" height="14" y="67" rx="7"/>
            <rect width="208" height="14" y="93" rx="7"/>
            <rect width="208" height="14" y="119" rx="7"/>
            <rect width="168" height="14" y="145" rx="7"/>
        </g>
    </g>
</svg>
